<?xml version="1.0" encoding="UTF-8"?>
<svg width="1200" height="630" viewBox="0 0 1200 630" xmlns="http://www.w3.org/2000/svg">
  <!-- Fondo negro -->
  <rect width="1200" height="630" fill="#000000"/>
  
  <!-- Efecto Matrix (líneas de código) -->
  <g opacity="0.2">
    <text font-family="monospace" font-size="14" fill="#22c55e" x="20" y="30">01アイウエオカキクケコサシスセソタチツテトナニヌネノハヒフヘホマミムメモヤユヨラリルレロワヲン</text>
    <text font-family="monospace" font-size="14" fill="#22c55e" x="50" y="60">10アイウエオカキクケコサシスセソタチツテトナニヌネノハヒフヘホマミムメモヤユヨラリルレロワヲン</text>
    <text font-family="monospace" font-size="14" fill="#22c55e" x="30" y="90">01アイウエオカキクケコサシスセソタチツテトナニヌネノハヒフヘホマミムメモヤユヨラリルレロワヲン</text>
    <text font-family="monospace" font-size="14" fill="#22c55e" x="10" y="120">10アイウエオカキクケコサシスセソタチツテトナニヌネノハヒフヘホマミムメモヤユヨラリルレロワヲン</text>
    <text font-family="monospace" font-size="14" fill="#22c55e" x="40" y="150">01アイウエオカキクケコサシスセソタチツテトナニヌネノハヒフヘホマミムメモヤユヨラリルレロワヲン</text>
    <text font-family="monospace" font-size="14" fill="#22c55e" x="20" y="180">10アイウエオカキクケコサシスセソタチツテトナニヌネノハヒフヘホマミムメモヤユヨラリルレロワヲン</text>
    <text font-family="monospace" font-size="14" fill="#22c55e" x="60" y="210">01アイウエオカキクケコサシスセソタチツテトナニヌネノハヒフヘホマミムメモヤユヨラリルレロワヲン</text>
    <text font-family="monospace" font-size="14" fill="#22c55e" x="30" y="240">10アイウエオカキクケコサシスセソタチツテトナニヌネノハヒフヘホマミムメモヤユヨラリルレロワヲン</text>
    <text font-family="monospace" font-size="14" fill="#22c55e" x="50" y="270">01アイウエオカキクケコサシスセソタチツテトナニヌネノハヒフヘホマミムメモヤユヨラリルレロワヲン</text>
    <text font-family="monospace" font-size="14" fill="#22c55e" x="20" y="300">10アイウエオカキクケコサシスセソタチツテトナニヌネノハヒフヘホマミムメモヤユヨラリルレロワヲン</text>
    <text font-family="monospace" font-size="14" fill="#22c55e" x="40" y="330">01アイウエオカキクケコサシスセソタチツテトナニヌネノハヒフヘホマミムメモヤユヨラリルレロワヲン</text>
    <text font-family="monospace" font-size="14" fill="#22c55e" x="10" y="360">10アイウエオカキクケコサシスセソタチツテトナニヌネノハヒフヘホマミムメモヤユヨラリルレロワヲン</text>
    <text font-family="monospace" font-size="14" fill="#22c55e" x="30" y="390">01アイウエオカキクケコサシスセソタチツテトナニヌネノハヒフヘホマミムメモヤユヨラリルレロワヲン</text>
    <text font-family="monospace" font-size="14" fill="#22c55e" x="60" y="420">10アイウエオカキクケコサシスセソタチツテトナニヌネノハヒフヘホマミムメモヤユヨラリルレロワヲン</text>
    <text font-family="monospace" font-size="14" fill="#22c55e" x="20" y="450">01アイウエオカキクケコサシスセソタチツテトナニヌネノハヒフヘホマミムメモヤユヨラリルレロワヲン</text>
    <text font-family="monospace" font-size="14" fill="#22c55e" x="50" y="480">10アイウエオカキクケコサシスセソタチツテトナニヌネノハヒフヘホマミムメモヤユヨラリルレロワヲン</text>
    <text font-family="monospace" font-size="14" fill="#22c55e" x="30" y="510">01アイウエオカキクケコサシスセソタチツテトナニヌネノハヒフヘホマミムメモヤユヨラリルレロワヲン</text>
    <text font-family="monospace" font-size="14" fill="#22c55e" x="10" y="540">10アイウエオカキクケコサシスセソタチツテトナニヌネノハヒフヘホマミムメモヤユヨラリルレロワヲン</text>
    <text font-family="monospace" font-size="14" fill="#22c55e" x="40" y="570">01アイウエオカキクケコサシスセソタチツテトナニヌネノハヒフヘホマミムメモヤユヨラリルレロワヲン</text>
    <text font-family="monospace" font-size="14" fill="#22c55e" x="20" y="600">10アイウエオカキクケコサシスセソタチツテトナニヌネノハヒフヘホマミムメモヤユヨラリルレロワヲン</text>
  </g>
  
  <!-- Círculo central para el perfil -->
  <circle cx="600" cy="250" r="120" fill="none" stroke="#22c55e" stroke-width="3"/>
  
  <!-- Texto principal -->
  <text x="600" y="430" font-family="'Inter', sans-serif" font-size="60" font-weight="bold" fill="white" text-anchor="middle">Henry Pacheco</text>
  <text x="600" y="490" font-family="'Inter', sans-serif" font-size="60" font-weight="bold" fill="#22c55e" text-anchor="middle">(H3n)</text>
  
  <!-- Subtítulo -->
  <text x="600" y="550" font-family="'Inter', sans-serif" font-size="30" fill="#cccccc" text-anchor="middle">Desarrollador Backend</text>
  
  <!-- Grid de fondo estilo Matrix -->
  <g stroke="#22c55e" stroke-width="0.5" opacity="0.1">
    <!-- Líneas horizontales -->
    <line x1="0" y1="0" x2="1200" y2="0"/>
    <line x1="0" y1="50" x2="1200" y2="50"/>
    <line x1="0" y1="100" x2="1200" y2="100"/>
    <line x1="0" y1="150" x2="1200" y2="150"/>
    <line x1="0" y1="200" x2="1200" y2="200"/>
    <line x1="0" y1="250" x2="1200" y2="250"/>
    <line x1="0" y1="300" x2="1200" y2="300"/>
    <line x1="0" y1="350" x2="1200" y2="350"/>
    <line x1="0" y1="400" x2="1200" y2="400"/>
    <line x1="0" y1="450" x2="1200" y2="450"/>
    <line x1="0" y1="500" x2="1200" y2="500"/>
    <line x1="0" y1="550" x2="1200" y2="550"/>
    <line x1="0" y1="600" x2="1200" y2="600"/>
    
    <!-- Líneas verticales -->
    <line x1="0" y1="0" x2="0" y2="630"/>
    <line x1="100" y1="0" x2="100" y2="630"/>
    <line x1="200" y1="0" x2="200" y2="630"/>
    <line x1="300" y1="0" x2="300" y2="630"/>
    <line x1="400" y1="0" x2="400" y2="630"/>
    <line x1="500" y1="0" x2="500" y2="630"/>
    <line x1="600" y1="0" x2="600" y2="630"/>
    <line x1="700" y1="0" x2="700" y2="630"/>
    <line x1="800" y1="0" x2="800" y2="630"/>
    <line x1="900" y1="0" x2="900" y2="630"/>
    <line x1="1000" y1="0" x2="1000" y2="630"/>
    <line x1="1100" y1="0" x2="1100" y2="630"/>
    <line x1="1200" y1="0" x2="1200" y2="630"/>
  </g>
</svg>
